<mxfile host="www.draw.io" modified="2023-10-09T20:30:05.467Z" agent="Mozilla/5.0 (Windows NT 10.0; Win64; x64) AppleWebKit/537.36 (KHTML, like Gecko) Chrome/117.0.0.0 Safari/537.36" etag="n1KZVIH2XRYxaVruM_ag" version="22.0.4" type="device">
  <diagram name="Page-1" id="LewQcrkM5FS4CJvVBOjR">
    <mxGraphModel dx="1120" dy="446" grid="1" gridSize="10" guides="1" tooltips="1" connect="1" arrows="1" fold="1" page="1" pageScale="1" pageWidth="1169" pageHeight="827" math="0" shadow="0">
      <root>
        <mxCell id="0" />
        <mxCell id="1" parent="0" />
        <mxCell id="rKrle89ie0SiWbJT6OAT-1" value="nota1" style="rounded=0;whiteSpace=wrap;html=1;" vertex="1" parent="1">
          <mxGeometry x="130" y="220" width="60" height="60" as="geometry" />
        </mxCell>
        <mxCell id="rKrle89ie0SiWbJT6OAT-2" value="nota2" style="rounded=0;whiteSpace=wrap;html=1;" vertex="1" parent="1">
          <mxGeometry x="219" y="220" width="60" height="60" as="geometry" />
        </mxCell>
        <mxCell id="rKrle89ie0SiWbJT6OAT-3" value="" style="rounded=0;whiteSpace=wrap;html=1;" vertex="1" parent="1">
          <mxGeometry x="308" y="220" width="60" height="60" as="geometry" />
        </mxCell>
        <mxCell id="rKrle89ie0SiWbJT6OAT-4" value="" style="rounded=0;whiteSpace=wrap;html=1;" vertex="1" parent="1">
          <mxGeometry x="397" y="220" width="60" height="60" as="geometry" />
        </mxCell>
        <mxCell id="rKrle89ie0SiWbJT6OAT-5" value="" style="rounded=0;whiteSpace=wrap;html=1;" vertex="1" parent="1">
          <mxGeometry x="486" y="220" width="60" height="60" as="geometry" />
        </mxCell>
        <mxCell id="rKrle89ie0SiWbJT6OAT-6" value="nota48" style="rounded=0;whiteSpace=wrap;html=1;" vertex="1" parent="1">
          <mxGeometry x="575" y="220" width="60" height="60" as="geometry" />
        </mxCell>
        <mxCell id="rKrle89ie0SiWbJT6OAT-7" value="array" style="rounded=0;whiteSpace=wrap;html=1;" vertex="1" parent="1">
          <mxGeometry x="100" y="50" width="570" height="80" as="geometry" />
        </mxCell>
        <mxCell id="rKrle89ie0SiWbJT6OAT-9" value="1" style="rounded=0;whiteSpace=wrap;html=1;" vertex="1" parent="1">
          <mxGeometry x="120" y="65" width="50" height="50" as="geometry" />
        </mxCell>
        <mxCell id="rKrle89ie0SiWbJT6OAT-10" value="8" style="rounded=0;whiteSpace=wrap;html=1;" vertex="1" parent="1">
          <mxGeometry x="183" y="65" width="50" height="50" as="geometry" />
        </mxCell>
        <mxCell id="rKrle89ie0SiWbJT6OAT-11" value="6" style="rounded=0;whiteSpace=wrap;html=1;" vertex="1" parent="1">
          <mxGeometry x="251" y="65" width="50" height="50" as="geometry" />
        </mxCell>
        <mxCell id="rKrle89ie0SiWbJT6OAT-12" value="10" style="rounded=0;whiteSpace=wrap;html=1;" vertex="1" parent="1">
          <mxGeometry x="418" y="65" width="50" height="50" as="geometry" />
        </mxCell>
        <mxCell id="rKrle89ie0SiWbJT6OAT-13" value="6" style="rounded=0;whiteSpace=wrap;html=1;" vertex="1" parent="1">
          <mxGeometry x="486" y="65" width="50" height="50" as="geometry" />
        </mxCell>
        <mxCell id="rKrle89ie0SiWbJT6OAT-14" value="9" style="rounded=0;whiteSpace=wrap;html=1;" vertex="1" parent="1">
          <mxGeometry x="554" y="65" width="50" height="50" as="geometry" />
        </mxCell>
        <mxCell id="rKrle89ie0SiWbJT6OAT-16" value="" style="endArrow=classic;html=1;rounded=0;" edge="1" parent="1">
          <mxGeometry width="50" height="50" relative="1" as="geometry">
            <mxPoint x="120" y="160" as="sourcePoint" />
            <mxPoint x="660" y="160" as="targetPoint" />
          </mxGeometry>
        </mxCell>
      </root>
    </mxGraphModel>
  </diagram>
</mxfile>
